<?xml version="1.0" encoding="utf-8"?>
<svg viewBox="1.267 1.621 15.635 15.018" width="15.635" height="15.018" xmlns="http://www.w3.org/2000/svg">
  <path fill-rule="evenodd" clip-rule="evenodd" d="M 12.67 13.224 C 12.668 13.225 12.659 13.228 12.639 13.235 C 12.608 13.245 11.16 13.658 10.433 13.658 C 10.276 13.658 10.12 13.652 9.965 13.64 C 9.382 15.205 7.901 16.325 6.152 16.325 C 5.686 16.325 5.238 16.245 4.82 16.097 C 4.748 16.072 4.702 16.056 4.667 16.044 C 4.643 16.036 4.632 16.033 4.631 16.033 M 9.126 12.984 C 8.772 14.338 7.567 15.325 6.152 15.325 C 5.802 15.325 5.465 15.265 5.153 15.154 C 5.142 15.151 5.132 15.147 5.121 15.143 C 5.015 15.106 4.912 15.069 4.829 15.053 C 4.749 15.037 4.691 15.031 4.609 15.03 C 4.524 15.03 4.435 15.042 4.349 15.054 C 4.342 15.055 4.334 15.056 4.327 15.057 L 3.041 15.232 L 3.294 14.092 C 3.296 14.083 3.297 14.075 3.299 14.067 C 3.32 13.972 3.342 13.873 3.348 13.778 C 3.353 13.687 3.35 13.62 3.336 13.53 C 3.321 13.435 3.283 13.32 3.244 13.202 C 3.24 13.19 3.237 13.179 3.233 13.167 C 3.13 12.851 3.073 12.512 3.073 12.158 C 3.073 10.398 4.463 8.991 6.152 8.991 C 7.841 8.991 9.231 10.398 9.231 12.158 C 9.231 12.435 9.197 12.703 9.132 12.959 C 9.13 12.967 9.128 12.975 9.126 12.984 Z M 10.203 12.653 C 10.279 12.656 10.356 12.658 10.433 12.658 C 11.039 12.658 11.618 12.548 12.151 12.349 C 12.16 12.345 12.169 12.342 12.178 12.338 C 12.276 12.302 12.374 12.265 12.462 12.246 C 12.544 12.229 12.612 12.222 12.696 12.221 C 12.786 12.221 12.878 12.234 12.966 12.247 C 12.973 12.248 12.981 12.25 12.988 12.251 L 15.112 12.562 C 15.127 12.564 15.141 12.566 15.155 12.568 C 15.153 12.555 15.151 12.54 15.149 12.525 L 14.881 10.345 C 14.88 10.338 14.879 10.33 14.878 10.323 C 14.868 10.238 14.857 10.149 14.859 10.062 C 14.861 9.981 14.869 9.916 14.886 9.837 C 14.905 9.752 14.941 9.657 14.977 9.563 C 14.981 9.554 14.984 9.545 14.988 9.536 C 15.19 9.005 15.301 8.428 15.301 7.825 C 15.301 5.159 13.125 2.991 10.433 2.991 C 7.741 2.991 5.565 5.159 5.565 7.825 C 5.565 7.895 5.566 7.964 5.569 8.034 C 5.759 8.006 5.954 7.991 6.152 7.991 C 8.416 7.991 10.231 9.868 10.231 12.158 C 10.231 12.325 10.222 12.49 10.203 12.653 Z M 15.174 12.772 C 15.174 12.772 15.174 12.772 15.174 12.771 L 15.174 12.772 Z M 15.356 12.592 C 15.358 12.592 15.358 12.592 15.358 12.592 L 15.356 12.592 Z M 4.565 7.825 C 4.565 7.988 4.571 8.15 4.585 8.31 L 4.565 7.825 Z M 2.282 13.478 C 2.308 13.557 2.325 13.609 2.337 13.648 L 2.282 13.478 Z M 2.337 13.648 C 2.345 13.675 2.348 13.686 2.348 13.688 L 2.337 13.648 Z M 2.348 13.688 C 2.35 13.697 2.35 13.701 2.35 13.703 L 2.348 13.688 Z M 12.685 13.222 C 12.685 13.222 12.689 13.221 12.701 13.221 C 12.703 13.221 12.71 13.222 12.726 13.224 C 12.751 13.227 12.785 13.232 12.843 13.24 L 14.982 13.554 C 15.086 13.569 15.194 13.585 15.286 13.59 C 15.387 13.596 15.529 13.594 15.676 13.53 C 15.866 13.449 16.019 13.3 16.105 13.112 C 16.172 12.966 16.177 12.824 16.173 12.723 C 16.17 12.631 16.157 12.523 16.144 12.419 L 15.874 10.223 C 15.867 10.166 15.863 10.134 15.86 10.109 C 15.859 10.093 15.859 10.087 15.859 10.085 C 15.859 10.073 15.859 10.07 15.859 10.069 C 15.859 10.069 15.86 10.066 15.862 10.055 C 15.863 10.054 15.865 10.045 15.872 10.025 C 15.883 9.995 15.898 9.956 15.922 9.893 C 16.167 9.249 16.301 8.552 16.301 7.825 C 16.301 4.6 13.671 1.991 10.433 1.991 C 7.195 1.991 4.565 4.6 4.565 7.825 C 4.864 8.54 3.278 8.901 2.713 10.172 C 2.246 11.221 2.035 12.358 2.271 13.501 C 2.27 13.503 2.348 13.729 2.345 13.747 C 2.339 13.775 2.331 13.813 2.317 13.876 L 1.91 15.717 C 1.874 15.876 1.919 16.043 2.03 16.164 C 2.141 16.284 2.304 16.342 2.466 16.32 L 4.462 16.048 C 4.519 16.04 4.553 16.035 4.578 16.032 C 4.602 16.03 4.606 16.03 4.602 16.03 C 4.611 16.03 4.616 16.03 4.618 16.03" fill="#0584F9" transform="matrix(1, 0, 0, 1, 1.7763568394002505e-15, 0)"/>
</svg>