<svg width="16" height="18" viewBox="0 0 16 18" fill="none" xmlns="http://www.w3.org/2000/svg">
<path fill-rule="evenodd" clip-rule="evenodd" d="M12.8299 1.56527C12.3895 1.58599 11.828 1.66042 11.0374 1.76583L5.54415 2.49826C5.2422 2.53852 5.12807 2.55439 5.03471 2.57673C4.2084 2.77439 3.59716 3.47253 3.51044 4.31771C3.50065 4.41321 3.5 4.52844 3.5 4.83306C3.5 5.1092 3.27614 5.33306 3 5.33306C2.72386 5.33306 2.5 5.1092 2.5 4.83306C2.5 4.8226 2.5 4.81229 2.5 4.80212C2.49997 4.53899 2.49996 4.36873 2.51567 4.21564C2.64575 2.94788 3.5626 1.90066 4.80206 1.60417C4.95173 1.56836 5.12049 1.54588 5.38131 1.51112L10.9285 0.771505C11.6907 0.669876 12.2946 0.589345 12.7829 0.566372C13.281 0.542932 13.7099 0.575667 14.1084 0.734138C14.7478 0.988345 15.2803 1.45457 15.6168 2.05469C15.8265 2.4288 15.9156 2.84959 15.9583 3.34648C16 3.83348 16 4.4428 16 5.21174V12.7877C16 13.5567 16 14.166 15.9583 14.653C15.9156 15.1499 15.8265 15.5707 15.6168 15.9448C15.2803 16.5449 14.7478 17.0111 14.1084 17.2653C13.7099 17.4238 13.281 17.4565 12.7829 17.4331C12.2946 17.4101 11.6906 17.3296 10.9284 17.2279L5.41199 16.4924L5.3811 16.4883C5.12044 16.4536 4.95168 16.4311 4.80206 16.3953C3.5626 16.0988 2.64575 15.0516 2.51567 13.7838C2.49996 13.6307 2.49997 13.4605 2.5 13.1973L2.5 13.1664C2.5 12.8903 2.72386 12.6664 3 12.6664C3.27614 12.6664 3.5 12.8903 3.5 13.1664C3.5 13.471 3.50065 13.5862 3.51044 13.6817C3.59716 14.5269 4.2084 15.2251 5.03471 15.4227C5.12806 15.4451 5.24223 15.4609 5.54416 15.5012L11.0374 16.2336C11.828 16.339 12.3895 16.4135 12.8299 16.4342C13.2652 16.4547 13.5307 16.4189 13.739 16.3361C14.1652 16.1666 14.5202 15.8558 14.7445 15.4557C14.8541 15.2602 14.9247 15.0018 14.9619 14.5675C14.9996 14.1283 15 13.5619 15 12.7643V5.23513C15 4.43758 14.9996 3.87116 14.9619 3.43191C14.9247 2.99764 14.8541 2.73924 14.7445 2.54374C14.5202 2.14367 14.1652 1.83285 13.739 1.66338C13.5307 1.58056 13.2652 1.54478 12.8299 1.56527ZM7.64645 5.31284C7.84171 5.11758 8.15829 5.11758 8.35355 5.31284L11.6869 8.64617C11.8821 8.84144 11.8821 9.15802 11.6869 9.35328L8.35355 12.6866C8.15829 12.8819 7.84171 12.8819 7.64645 12.6866C7.45118 12.4914 7.45118 12.1748 7.64645 11.9795L10.1262 9.49973H0.5C0.223858 9.49973 0 9.27587 0 8.99973C0 8.72358 0.223858 8.49973 0.5 8.49973H10.1262L7.64645 6.01995C7.45118 5.82468 7.45118 5.5081 7.64645 5.31284Z" fill="white"/>
</svg>
