<svg width="17" height="16" viewBox="0 0 17 16" fill="none" xmlns="http://www.w3.org/2000/svg">
<path fill-rule="evenodd" clip-rule="evenodd" d="M7.66667 1C4.26091 1 1.5 3.76091 1.5 7.16667C1.5 10.5724 4.26091 13.3333 7.66667 13.3333C9.33839 13.3333 10.8547 12.6681 11.9655 11.588C11.9819 11.5646 12.0006 11.5423 12.0214 11.5214C12.0423 11.5006 12.0646 11.4819 12.088 11.4655C13.1681 10.3547 13.8333 8.83839 13.8333 7.16667C13.8333 3.76091 11.0724 1 7.66667 1ZM13.0755 11.8684C14.1704 10.61 14.8333 8.96573 14.8333 7.16667C14.8333 3.20863 11.6247 0 7.66667 0C3.70863 0 0.5 3.20863 0.5 7.16667C0.5 11.1247 3.70863 14.3333 7.66667 14.3333C9.46573 14.3333 11.11 13.6704 12.3684 12.5755L15.6464 15.8536C15.8417 16.0488 16.1583 16.0488 16.3536 15.8536C16.5488 15.6583 16.5488 15.3417 16.3536 15.1464L13.0755 11.8684ZM7.16667 3C7.16667 2.72386 7.39052 2.5 7.66667 2.5C10.244 2.5 12.3333 4.58934 12.3333 7.16667C12.3333 7.44281 12.1095 7.66667 11.8333 7.66667C11.5572 7.66667 11.3333 7.44281 11.3333 7.16667C11.3333 5.14162 9.69171 3.5 7.66667 3.5C7.39052 3.5 7.16667 3.27614 7.16667 3Z" fill="white"/>
</svg>
