<svg width="15" height="16" viewBox="0 0 15 16" fill="none" xmlns="http://www.w3.org/2000/svg">
<path d="M6.48374 1.57087C6.78309 0.649555 8.0865 0.649555 8.38586 1.57087L9.45543 4.86266C9.5893 5.27469 9.97326 5.55365 10.4065 5.55365H13.8677C14.8364 5.55365 15.2392 6.79326 14.4555 7.36266L11.6553 9.39711C11.3048 9.65175 11.1582 10.1031 11.292 10.5151L12.3616 13.8069C12.6609 14.7282 11.6065 15.4944 10.8228 14.925L8.02258 12.8905C7.6721 12.6359 7.1975 12.6359 6.84701 12.8905L4.04684 14.925C3.26313 15.4944 2.20865 14.7282 2.508 13.8069L3.57757 10.5151C3.71145 10.1031 3.56479 9.65175 3.2143 9.39711L0.414131 7.36266C-0.369582 6.79326 0.0331936 5.55365 1.00192 5.55365H4.46312C4.89634 5.55365 5.2803 5.27469 5.41417 4.86266L6.48374 1.57087Z" fill="#F8CB29"/>
</svg>
