<svg width="280" height="55" viewBox="0 0 280 55" fill="none" xmlns="http://www.w3.org/2000/svg">
<path d="M43.6426 40.7297C43.6426 43.7522 42.8247 46.2793 41.1891 48.3108C39.603 50.2928 37.4469 51.7793 34.7208 52.7703C31.9946 53.7613 28.9959 54.2568 25.7246 54.2568H0V1.48649H29.3677C31.8459 1.48649 33.9773 2.1554 35.7616 3.49324C37.5956 4.78153 38.9834 6.46622 39.9252 8.5473C40.9165 10.6284 41.4121 12.7838 41.4121 15.0135C41.4121 17.491 40.7678 19.8694 39.4791 22.1486C38.1904 24.3784 36.3069 26.0631 33.8286 27.2027C36.8521 28.0946 39.2312 29.6802 40.966 31.9595C42.7504 34.2387 43.6426 37.1622 43.6426 40.7297ZM31.2264 38.277C31.2264 37.1374 31.0033 36.1464 30.5572 35.3041C30.1112 34.4122 29.5164 33.7185 28.7729 33.223C28.079 32.6779 27.2363 32.4054 26.245 32.4054H12.1932V43.9257H25.7246C26.7655 43.9257 27.6824 43.6779 28.4755 43.1824C29.3181 42.6869 29.9872 42.018 30.4829 41.1757C30.9785 40.3333 31.2264 39.3671 31.2264 38.277ZM12.1932 11.8919V22.8176H24.1633C25.0555 22.8176 25.8733 22.6194 26.6168 22.223C27.4098 21.8266 28.0542 21.232 28.5498 20.4392C29.0455 19.5968 29.2933 18.5563 29.2933 17.3176C29.2933 16.1284 29.0703 15.1374 28.6242 14.3446C28.2277 13.5518 27.6824 12.9572 26.9885 12.5608C26.2946 12.1149 25.5015 11.8919 24.6094 11.8919H12.1932Z" fill="#242424"/>
<path d="M47.4041 42.5878C47.4041 40.0113 48.1229 37.7568 49.5603 35.8243C50.9977 33.8919 52.9803 32.3806 55.5081 31.2905C58.036 30.1509 60.9356 29.5811 64.2069 29.5811C65.793 29.5811 67.3543 29.7297 68.8909 30.027C70.4274 30.2748 71.7657 30.6464 72.9057 31.1419V29.4324C72.9057 27.3018 72.2613 25.6667 70.9726 24.527C69.6839 23.3874 67.7261 22.8176 65.0991 22.8176C62.9182 22.8176 60.8612 23.1892 58.9282 23.9324C57.0447 24.6757 55.0373 25.741 52.9059 27.1284L49.3372 19.5473C51.9146 17.8626 54.5912 16.5991 57.3669 15.7568C60.1921 14.9144 63.166 14.4932 66.2887 14.4932C72.1374 14.4932 76.6727 15.9054 79.8945 18.7297C83.1658 21.5045 84.8015 25.5428 84.8015 30.8446V41.027C84.8015 42.2162 84.9749 43.0586 85.3219 43.5541C85.7184 44 86.3876 44.2725 87.3293 44.3716V54.2568C86.338 54.455 85.3962 54.6036 84.5041 54.7027C83.6614 54.8018 82.918 54.8513 82.2736 54.8513C80.0431 54.8513 78.3331 54.4054 77.1436 53.5135C76.0035 52.6216 75.2848 51.4077 74.9874 49.8716L74.7644 48.1622C73.0296 50.3919 70.9478 52.1013 68.5191 53.2905C66.14 54.4302 63.6369 55 61.0099 55C58.4325 55 56.1029 54.455 54.0212 53.3649C51.989 52.2748 50.3781 50.7883 49.1885 48.9054C47.9989 47.0225 47.4041 44.9167 47.4041 42.5878ZM71.047 44.0743C71.5922 43.6284 72.0383 43.1329 72.3853 42.5878C72.7322 42.0428 72.9057 41.5225 72.9057 41.027V37.5338C71.9144 37.1374 70.7991 36.8401 69.56 36.6419C68.3704 36.3941 67.2552 36.2703 66.2143 36.2703C64.0334 36.2703 62.2243 36.7658 60.7869 37.7568C59.3495 38.6982 58.6308 39.9617 58.6308 41.5473C58.6308 42.4392 58.8786 43.2568 59.3743 44C59.8699 44.7432 60.5391 45.3378 61.3817 45.7838C62.2739 46.2297 63.3147 46.4527 64.5043 46.4527C65.6939 46.4527 66.8835 46.2297 68.073 45.7838C69.2626 45.3378 70.2539 44.768 71.047 44.0743Z" fill="#242424"/>
<path d="M93.2725 0H105.168V40.3581C105.168 41.9932 105.466 43.1577 106.06 43.8513C106.655 44.545 107.498 44.8919 108.588 44.8919C109.332 44.8919 110.075 44.7928 110.819 44.5946C111.612 44.3468 112.306 44.0743 112.901 43.777L114.462 52.6959C112.975 53.3896 111.265 53.9347 109.332 54.3311C107.399 54.7275 105.59 54.9257 103.904 54.9257C100.534 54.9257 97.9069 54.0338 96.0234 52.25C94.1895 50.4167 93.2725 47.8401 93.2725 44.5203V0Z" fill="#242424"/>
<path d="M118.325 54.2568V15.2365H130.221V54.2568H118.325ZM118.325 10.777V0H130.221V10.777H118.325Z" fill="#242424"/>
<path d="M163.122 25.4189C160.248 25.4189 157.645 25.8896 155.316 26.8311C152.986 27.723 151.301 29.0608 150.26 30.8446V54.2568H138.364V15.2365H149.294V23.1149C150.632 20.4887 152.367 18.4324 154.498 16.9459C156.629 15.4595 158.86 14.6914 161.189 14.6419C161.735 14.6419 162.131 14.6419 162.379 14.6419C162.676 14.6419 162.924 14.6667 163.122 14.7162V25.4189Z" fill="#242424"/>
<path d="M165.389 42.5878C165.389 40.0113 166.108 37.7568 167.545 35.8243C168.982 33.8919 170.965 32.3806 173.493 31.2905C176.021 30.1509 178.92 29.5811 182.192 29.5811C183.778 29.5811 185.339 29.7297 186.876 30.027C188.412 30.2748 189.75 30.6464 190.89 31.1419V29.4324C190.89 27.3018 190.246 25.6667 188.957 24.527C187.669 23.3874 185.711 22.8176 183.084 22.8176C180.903 22.8176 178.846 23.1892 176.913 23.9324C175.029 24.6757 173.022 25.741 170.891 27.1284L167.322 19.5473C169.899 17.8626 172.576 16.5991 175.352 15.7568C178.177 14.9144 181.151 14.4932 184.273 14.4932C190.122 14.4932 194.657 15.9054 197.879 18.7297C201.15 21.5045 202.786 25.5428 202.786 30.8446V41.027C202.786 42.2162 202.96 43.0586 203.307 43.5541C203.703 44 204.372 44.2725 205.314 44.3716V54.2568C204.323 54.455 203.381 54.6036 202.489 54.7027C201.646 54.8018 200.903 54.8513 200.258 54.8513C198.028 54.8513 196.318 54.4054 195.128 53.5135C193.988 52.6216 193.27 51.4077 192.972 49.8716L192.749 48.1622C191.014 50.3919 188.933 52.1013 186.504 53.2905C184.125 54.4302 181.622 55 178.995 55C176.417 55 174.088 54.455 172.006 53.3649C169.974 52.2748 168.363 50.7883 167.173 48.9054C165.984 47.0225 165.389 44.9167 165.389 42.5878ZM189.032 44.0743C189.577 43.6284 190.023 43.1329 190.37 42.5878C190.717 42.0428 190.89 41.5225 190.89 41.027V37.5338C189.899 37.1374 188.784 36.8401 187.545 36.6419C186.355 36.3941 185.24 36.2703 184.199 36.2703C182.018 36.2703 180.209 36.7658 178.772 37.7568C177.334 38.6982 176.615 39.9617 176.615 41.5473C176.615 42.4392 176.863 43.2568 177.359 44C177.855 44.7432 178.524 45.3378 179.366 45.7838C180.259 46.2297 181.299 46.4527 182.489 46.4527C183.679 46.4527 184.868 46.2297 186.058 45.7838C187.247 45.3378 188.239 44.768 189.032 44.0743Z" fill="#242424"/>
<path d="M236.321 52.1757C235.231 52.6216 234.017 53.0676 232.678 53.5135C231.39 53.9595 230.027 54.3063 228.589 54.5541C227.152 54.8513 225.739 55 224.351 55C222.369 55 220.535 54.6779 218.85 54.0338C217.214 53.3401 215.9 52.2252 214.909 50.6892C213.967 49.1532 213.496 47.1216 213.496 44.5946V24.2297H208.515V15.2365H213.496V2.82432H225.392V15.2365H233.347V24.2297H225.392V40.5068C225.392 41.795 225.714 42.7365 226.359 43.3311C227.003 43.8761 227.821 44.1486 228.812 44.1486C229.655 44.1486 230.547 44 231.489 43.7027C232.48 43.4054 233.323 43.0833 234.017 42.7365L236.321 52.1757Z" fill="#242424"/>
<path d="M259.182 55C255.862 55 252.912 54.4797 250.335 53.4392C247.758 52.3491 245.552 50.8874 243.718 49.0541C241.934 47.2207 240.57 45.1149 239.629 42.7365C238.687 40.3086 238.216 37.7815 238.216 35.1554C238.216 31.3896 239.034 27.9707 240.67 24.8986C242.355 21.777 244.759 19.2748 247.881 17.3919C251.004 15.4595 254.771 14.4932 259.182 14.4932C263.594 14.4932 267.336 15.4347 270.409 17.3176C273.532 19.2005 275.911 21.6779 277.546 24.75C279.182 27.7725 280 31.0676 280 34.6351C280 35.3288 279.95 36.0225 279.851 36.7162C279.802 37.3604 279.752 37.9302 279.703 38.4257H250.855C251.004 40.1599 251.475 41.6216 252.268 42.8108C253.111 44 254.176 44.9167 255.465 45.5608C256.754 46.1554 258.117 46.4527 259.554 46.4527C261.339 46.4527 262.999 46.0315 264.535 45.1892C266.122 44.3468 267.212 43.2072 267.807 41.7703L277.918 44.5946C276.927 46.6261 275.514 48.4347 273.68 50.0203C271.896 51.5563 269.765 52.7703 267.286 53.6622C264.858 54.5541 262.156 55 259.182 55ZM250.558 31.1419H267.509C267.311 29.5068 266.84 28.0946 266.097 26.9054C265.353 25.6667 264.362 24.7252 263.123 24.0811C261.884 23.3874 260.521 23.0405 259.034 23.0405C257.497 23.0405 256.109 23.3874 254.87 24.0811C253.681 24.7252 252.714 25.6667 251.971 26.9054C251.227 28.0946 250.756 29.5068 250.558 31.1419Z" fill="#242424"/>
</svg>
