<svg width="84" height="26" viewBox="0 0 84 18" fill="none" xmlns="http://www.w3.org/2000/svg">
<path d="M13.41 12.996C13.41 13.8907 13.168 14.6387 12.684 15.24C12.2147 15.8267 11.5767 16.2667 10.77 16.56C9.96333 16.8533 9.076 17 8.108 17H0.496V1.38H9.186C9.91933 1.38 10.55 1.578 11.078 1.974C11.6207 2.35533 12.0313 2.854 12.31 3.47C12.6033 4.086 12.75 4.724 12.75 5.384C12.75 6.11733 12.5593 6.82133 12.178 7.496C11.7967 8.156 11.2393 8.65467 10.506 8.992C11.4007 9.256 12.1047 9.72533 12.618 10.4C13.146 11.0747 13.41 11.94 13.41 12.996ZM9.736 12.27C9.736 11.9327 9.67 11.6393 9.538 11.39C9.406 11.126 9.23 10.9207 9.01 10.774C8.80467 10.6127 8.55533 10.532 8.262 10.532H4.104V13.942H8.108C8.416 13.942 8.68733 13.8687 8.922 13.722C9.17133 13.5753 9.36933 13.3773 9.516 13.128C9.66267 12.8787 9.736 12.5927 9.736 12.27ZM4.104 4.46V7.694H7.646C7.91 7.694 8.152 7.63533 8.372 7.518C8.60667 7.40067 8.79733 7.22467 8.944 6.99C9.09067 6.74067 9.164 6.43267 9.164 6.066C9.164 5.714 9.098 5.42067 8.966 5.186C8.84867 4.95133 8.68733 4.77533 8.482 4.658C8.27667 4.526 8.042 4.46 7.778 4.46H4.104ZM14.5231 13.546C14.5231 12.7833 14.7357 12.116 15.1611 11.544C15.5864 10.972 16.1731 10.5247 16.9211 10.202C17.6691 9.86467 18.5271 9.696 19.4951 9.696C19.9644 9.696 20.4264 9.74 20.8811 9.828C21.3357 9.90133 21.7317 10.0113 22.0691 10.158V9.652C22.0691 9.02133 21.8784 8.53733 21.4971 8.2C21.1157 7.86267 20.5364 7.694 19.7591 7.694C19.1137 7.694 18.5051 7.804 17.9331 8.024C17.3757 8.244 16.7817 8.55933 16.1511 8.97L15.0951 6.726C15.8577 6.22733 16.6497 5.85333 17.4711 5.604C18.3071 5.35467 19.1871 5.23 20.1111 5.23C21.8417 5.23 23.1837 5.648 24.1371 6.484C25.1051 7.30533 25.5891 8.50067 25.5891 10.07V13.084C25.5891 13.436 25.6404 13.6853 25.7431 13.832C25.8604 13.964 26.0584 14.0447 26.3371 14.074V17C26.0437 17.0587 25.7651 17.1027 25.5011 17.132C25.2517 17.1613 25.0317 17.176 24.8411 17.176C24.1811 17.176 23.6751 17.044 23.3231 16.78C22.9857 16.516 22.7731 16.1567 22.6851 15.702L22.6191 15.196C22.1057 15.856 21.4897 16.362 20.7711 16.714C20.0671 17.0513 19.3264 17.22 18.5491 17.22C17.7864 17.22 17.0971 17.0587 16.4811 16.736C15.8797 16.4133 15.4031 15.9733 15.0511 15.416C14.6991 14.8587 14.5231 14.2353 14.5231 13.546ZM21.5191 13.986C21.6804 13.854 21.8124 13.7073 21.9151 13.546C22.0177 13.3847 22.0691 13.2307 22.0691 13.084V12.05C21.7757 11.9327 21.4457 11.8447 21.0791 11.786C20.7271 11.7127 20.3971 11.676 20.0891 11.676C19.4437 11.676 18.9084 11.8227 18.4831 12.116C18.0577 12.3947 17.8451 12.7687 17.8451 13.238C17.8451 13.502 17.9184 13.744 18.0651 13.964C18.2117 14.184 18.4097 14.36 18.6591 14.492C18.9231 14.624 19.2311 14.69 19.5831 14.69C19.9351 14.69 20.2871 14.624 20.6391 14.492C20.9911 14.36 21.2844 14.1913 21.5191 13.986ZM28.0957 0.94H31.6157V12.886C31.6157 13.37 31.7037 13.7147 31.8797 13.92C32.0557 14.1253 32.305 14.228 32.6277 14.228C32.8477 14.228 33.0677 14.1987 33.2877 14.14C33.5224 14.0667 33.7277 13.986 33.9037 13.898L34.3657 16.538C33.9257 16.7433 33.4197 16.9047 32.8477 17.022C32.2757 17.1393 31.7404 17.198 31.2417 17.198C30.2444 17.198 29.467 16.934 28.9097 16.406C28.367 15.8633 28.0957 15.1007 28.0957 14.118V0.94ZM35.5088 17V5.45H39.0288V17H35.5088ZM35.5088 4.13V0.94H39.0288V4.13H35.5088ZM48.7645 8.464C47.9138 8.464 47.1438 8.60333 46.4545 8.882C45.7652 9.146 45.2665 9.542 44.9585 10.07V17H41.4385V5.45H44.6725V7.782C45.0685 7.00467 45.5818 6.396 46.2125 5.956C46.8432 5.516 47.5032 5.28867 48.1925 5.274C48.3538 5.274 48.4712 5.274 48.5445 5.274C48.6325 5.274 48.7058 5.28133 48.7645 5.296V8.464ZM49.4352 13.546C49.4352 12.7833 49.6478 12.116 50.0732 11.544C50.4985 10.972 51.0852 10.5247 51.8332 10.202C52.5812 9.86467 53.4392 9.696 54.4072 9.696C54.8765 9.696 55.3385 9.74 55.7932 9.828C56.2478 9.90133 56.6438 10.0113 56.9812 10.158V9.652C56.9812 9.02133 56.7905 8.53733 56.4092 8.2C56.0278 7.86267 55.4485 7.694 54.6712 7.694C54.0258 7.694 53.4172 7.804 52.8452 8.024C52.2878 8.244 51.6938 8.55933 51.0632 8.97L50.0072 6.726C50.7698 6.22733 51.5618 5.85333 52.3832 5.604C53.2192 5.35467 54.0992 5.23 55.0232 5.23C56.7538 5.23 58.0958 5.648 59.0492 6.484C60.0172 7.30533 60.5012 8.50067 60.5012 10.07V13.084C60.5012 13.436 60.5525 13.6853 60.6552 13.832C60.7725 13.964 60.9705 14.0447 61.2492 14.074V17C60.9558 17.0587 60.6772 17.1027 60.4132 17.132C60.1638 17.1613 59.9438 17.176 59.7532 17.176C59.0932 17.176 58.5872 17.044 58.2352 16.78C57.8978 16.516 57.6852 16.1567 57.5972 15.702L57.5312 15.196C57.0178 15.856 56.4018 16.362 55.6832 16.714C54.9792 17.0513 54.2385 17.22 53.4612 17.22C52.6985 17.22 52.0092 17.0587 51.3932 16.736C50.7918 16.4133 50.3152 15.9733 49.9632 15.416C49.6112 14.8587 49.4352 14.2353 49.4352 13.546ZM56.4312 13.986C56.5925 13.854 56.7245 13.7073 56.8272 13.546C56.9298 13.3847 56.9812 13.2307 56.9812 13.084V12.05C56.6878 11.9327 56.3578 11.8447 55.9912 11.786C55.6392 11.7127 55.3092 11.676 55.0012 11.676C54.3558 11.676 53.8205 11.8227 53.3952 12.116C52.9698 12.3947 52.7572 12.7687 52.7572 13.238C52.7572 13.502 52.8305 13.744 52.9772 13.964C53.1238 14.184 53.3218 14.36 53.5712 14.492C53.8352 14.624 54.1432 14.69 54.4952 14.69C54.8472 14.69 55.1992 14.624 55.5512 14.492C55.9032 14.36 56.1965 14.1913 56.4312 13.986ZM70.4244 16.384C70.1017 16.516 69.7424 16.648 69.3464 16.78C68.965 16.912 68.5617 17.0147 68.1364 17.088C67.711 17.176 67.293 17.22 66.8824 17.22C66.2957 17.22 65.753 17.1247 65.2544 16.934C64.7704 16.7287 64.3817 16.3987 64.0884 15.944C63.8097 15.4893 63.6704 14.888 63.6704 14.14V8.112H62.1964V5.45H63.6704V1.776H67.1904V5.45H69.5444V8.112H67.1904V12.93C67.1904 13.3113 67.2857 13.59 67.4764 13.766C67.667 13.9273 67.909 14.008 68.2024 14.008C68.4517 14.008 68.7157 13.964 68.9944 13.876C69.2877 13.788 69.537 13.6927 69.7424 13.59L70.4244 16.384ZM77.189 17.22C76.2064 17.22 75.3337 17.066 74.571 16.758C73.8084 16.4353 73.1557 16.0027 72.613 15.46C72.085 14.9173 71.6817 14.294 71.403 13.59C71.1244 12.8713 70.985 12.1233 70.985 11.346C70.985 10.2313 71.227 9.21933 71.711 8.31C72.2097 7.386 72.921 6.64533 73.845 6.088C74.769 5.516 75.8837 5.23 77.189 5.23C78.4944 5.23 79.6017 5.50867 80.511 6.066C81.435 6.62333 82.139 7.35667 82.623 8.266C83.107 9.16067 83.349 10.136 83.349 11.192C83.349 11.3973 83.3344 11.6027 83.305 11.808C83.2904 11.9987 83.2757 12.1673 83.261 12.314H74.725C74.769 12.8273 74.9084 13.26 75.143 13.612C75.3924 13.964 75.7077 14.2353 76.089 14.426C76.4704 14.602 76.8737 14.69 77.299 14.69C77.827 14.69 78.3184 14.5653 78.773 14.316C79.2424 14.0667 79.565 13.7293 79.741 13.304L82.733 14.14C82.4397 14.7413 82.0217 15.2767 81.479 15.746C80.951 16.2007 80.3204 16.56 79.587 16.824C78.8684 17.088 78.069 17.22 77.189 17.22ZM74.637 10.158H79.653C79.5944 9.674 79.455 9.256 79.235 8.904C79.015 8.53733 78.7217 8.25867 78.355 8.068C77.9884 7.86267 77.585 7.76 77.145 7.76C76.6904 7.76 76.2797 7.86267 75.913 8.068C75.561 8.25867 75.275 8.53733 75.055 8.904C74.835 9.256 74.6957 9.674 74.637 10.158Z" fill="#242424"/>
</svg>
