<svg width="13" height="11" viewBox="0 0 13 11" fill="none" xmlns="http://www.w3.org/2000/svg">
<path fill-rule="evenodd" clip-rule="evenodd" d="M10.5 1.33301C9.67157 1.33301 9 2.00458 9 2.83301C9 3.66144 9.67157 4.33301 10.5 4.33301C11.3284 4.33301 12 3.66143 12 2.83301C12 2.00458 11.3284 1.33301 10.5 1.33301ZM8.05001 2.33301C8.28164 1.19189 9.29052 0.333008 10.5 0.333008C11.8807 0.333008 13 1.4523 13 2.83301C13 4.21372 11.8807 5.33301 10.5 5.33301C9.29052 5.33301 8.28164 4.47413 8.05001 3.33301L0.5 3.33301C0.223858 3.33301 0 3.10915 0 2.83301C2.98023e-08 2.55687 0.223858 2.33301 0.5 2.33301L8.05001 2.33301ZM2.5 6.66634C1.67157 6.66634 1 7.33791 1 8.16634C1 8.99477 1.67157 9.66634 2.5 9.66634C3.32843 9.66634 4 8.99477 4 8.16634C4 7.33791 3.32843 6.66634 2.5 6.66634ZM0 8.16634C0 6.78563 1.11929 5.66634 2.5 5.66634C3.70948 5.66634 4.71836 6.52522 4.94999 7.66634L12.5 7.66634C12.7761 7.66634 13 7.8902 13 8.16634C13 8.44248 12.7761 8.66634 12.5 8.66634H4.94999C4.71836 9.80746 3.70948 10.6663 2.5 10.6663C1.11929 10.6663 0 9.54705 0 8.16634Z" fill="#242424"/>
</svg>
