<svg width="16" height="18" viewBox="0 0 16 18" fill="none" xmlns="http://www.w3.org/2000/svg">
<path fill-rule="evenodd" clip-rule="evenodd" d="M4.47812 0.722656H11.5219C12.2034 0.722652 12.7454 0.722649 13.1827 0.758377C13.6305 0.794964 14.0123 0.871495 14.362 1.04964C14.9265 1.33726 15.3854 1.7962 15.673 2.36069C15.8512 2.71031 15.9277 3.09214 15.9643 3.53995C16 3.97724 16 4.51925 16 5.20077V9.99081C16 10.5579 16 11.0089 15.9751 11.3746C15.9495 11.7487 15.8962 12.0699 15.7716 12.3707C15.4672 13.1058 14.8831 13.6898 14.148 13.9943C13.8473 14.1189 13.526 14.1722 13.1519 14.1977C12.7862 14.2227 12.3352 14.2227 11.7682 14.2227H11.75C11.3189 14.2227 11.1842 14.2258 11.0653 14.2539C10.889 14.2955 10.7248 14.3776 10.5858 14.4936C10.492 14.5719 10.4087 14.6777 10.15 15.0227L8.92272 16.659C8.84151 16.7673 8.76196 16.8735 8.68767 16.956C8.60803 17.0446 8.49481 17.1527 8.33226 17.2159C8.11855 17.299 7.88145 17.299 7.66773 17.2159C7.50519 17.1527 7.39197 17.0446 7.31233 16.956C7.23805 16.8735 7.15851 16.7674 7.07731 16.6591L5.85 15.0227C5.59132 14.6777 5.50799 14.5719 5.41421 14.4936C5.27515 14.3776 5.11099 14.2955 4.93471 14.2539C4.81582 14.2258 4.68114 14.2227 4.25 14.2227H4.23184C3.6648 14.2227 3.21379 14.2227 2.84808 14.1977C2.47398 14.1722 2.15274 14.1189 1.85195 13.9943C1.11687 13.6898 0.532843 13.1058 0.228362 12.3707C0.103769 12.0699 0.0504722 11.7487 0.0249476 11.3746C-4.92111e-06 11.0089 -2.65576e-06 10.5579 1.45657e-07 9.99081L8.60527e-08 5.20078C-3.96706e-06 4.51925 -7.18608e-06 3.97724 0.0357212 3.53995C0.072308 3.09214 0.148839 2.71031 0.326981 2.36069C0.614601 1.7962 1.07354 1.33726 1.63803 1.04964C1.98765 0.871495 2.36949 0.794964 2.81729 0.758377C3.25458 0.722649 3.7966 0.722652 4.47812 0.722656ZM2.89872 1.75506C2.51276 1.78659 2.27717 1.8463 2.09202 1.94064C1.7157 2.13239 1.40973 2.43835 1.21799 2.81468C1.12365 2.99983 1.06393 3.23542 1.0324 3.62138C1.00039 4.01317 1 4.51434 1 5.22266V9.97266C1 10.5619 1.00027 10.9788 1.02263 11.3065C1.04468 11.6297 1.08653 11.8294 1.15224 11.988C1.35523 12.4781 1.74458 12.8674 2.23463 13.0704C2.39327 13.1361 2.59296 13.178 2.91615 13.2C3.24382 13.2224 3.66073 13.2227 4.25 13.2227C4.26811 13.2227 4.28598 13.2227 4.30361 13.2226C4.65889 13.2225 4.91786 13.2224 5.16446 13.2806C5.49183 13.3579 5.79671 13.5103 6.05495 13.7259C6.24949 13.8882 6.40479 14.0955 6.61785 14.3798C6.62842 14.3939 6.63913 14.4082 6.65 14.4227L7.86667 16.0449C7.92468 16.1222 7.96679 16.1781 8 16.2202C8.03321 16.1781 8.07532 16.1222 8.13333 16.0449L9.35 14.4227C9.36087 14.4082 9.37158 14.3939 9.38215 14.3798C9.59521 14.0955 9.75051 13.8882 9.94505 13.7259C10.2033 13.5103 10.5082 13.3579 10.8355 13.2806C11.0821 13.2224 11.3411 13.2225 11.6964 13.2226C11.714 13.2227 11.7319 13.2227 11.75 13.2227C12.3393 13.2227 12.7562 13.2224 13.0839 13.2C13.407 13.178 13.6067 13.1361 13.7654 13.0704C14.2554 12.8674 14.6448 12.4781 14.8478 11.988C14.9135 11.8294 14.9553 11.6297 14.9774 11.3065C14.9997 10.9788 15 10.5619 15 9.97266V5.22266C15 4.51434 14.9996 4.01317 14.9676 3.62138C14.9361 3.23542 14.8764 2.99983 14.782 2.81468C14.5903 2.43835 14.2843 2.13239 13.908 1.94064C13.7228 1.8463 13.4872 1.78659 13.1013 1.75506C12.7095 1.72305 12.2083 1.72266 11.5 1.72266H4.5C3.79168 1.72266 3.29052 1.72305 2.89872 1.75506Z" fill="white"/>
</svg>
