<svg width="20" height="20" viewBox="0 0 20 20" fill="none" xmlns="http://www.w3.org/2000/svg">
<path d="M12.467 2.49929L11.246 1.45879C10.5282 0.847069 9.47178 0.847069 8.75396 1.45879L7.53285 2.49932C7.22525 2.76146 6.84276 2.91981 6.43989 2.95196L4.84205 3.0794C3.90192 3.15442 3.15417 3.90099 3.07915 4.84112L2.95122 6.44024C2.91908 6.84311 2.76176 7.22541 2.49963 7.53301L1.45865 8.7542C0.846926 9.47203 0.847212 10.5276 1.45894 11.2454L2.49898 12.4666C2.76111 12.7742 2.91995 13.1565 2.9521 13.5594L3.08003 15.1585C3.15505 16.0986 3.90064 16.8452 4.84077 16.9202L6.44038 17.0477C6.84325 17.0798 7.22555 17.2382 7.53316 17.5003L8.75386 18.5409C9.47168 19.1526 10.5282 19.1525 11.246 18.5407L12.4667 17.5002C12.7744 17.2381 13.1567 17.08 13.5595 17.0478L15.1591 16.9202C16.0993 16.8452 16.8449 16.0984 16.9199 15.1583L17.0478 13.5593C17.08 13.1564 17.2388 12.7738 17.5009 12.4662L18.541 11.2454C19.1527 10.5275 19.1526 9.47164 18.5409 8.75382L17.5008 7.53319C17.2387 7.22559 17.0797 6.8431 17.0475 6.44024L16.9204 4.84093C16.8453 3.9008 16.0986 3.15452 15.1585 3.0795L13.5594 2.95206C13.1566 2.91991 12.7746 2.76143 12.467 2.49929Z" fill="#11E226"/>
<path d="M13 7.99981L8.99995 11.9998L6.99995 9.99981M11.246 1.45879L12.467 2.49929C12.7746 2.76143 13.1566 2.91991 13.5594 2.95206L15.1585 3.0795C16.0986 3.15452 16.8453 3.9008 16.9204 4.84093L17.0475 6.44024C17.0797 6.8431 17.2387 7.22559 17.5008 7.53319L18.5409 8.75382C19.1526 9.47164 19.1527 10.5275 18.541 11.2454L17.5009 12.4662C17.2388 12.7738 17.08 13.1564 17.0478 13.5593L16.9199 15.1583C16.8449 16.0984 16.0993 16.8452 15.1591 16.9202L13.5595 17.0478C13.1567 17.08 12.7744 17.2381 12.4667 17.5002L11.246 18.5407C10.5282 19.1525 9.47168 19.1526 8.75386 18.5409L7.53316 17.5003C7.22555 17.2382 6.84325 17.0798 6.44038 17.0477L4.84077 16.9202C3.90064 16.8452 3.15505 16.0986 3.08003 15.1585L2.9521 13.5594C2.91995 13.1565 2.76111 12.7742 2.49898 12.4666L1.45894 11.2454C0.847212 10.5276 0.846926 9.47203 1.45865 8.7542L2.49963 7.53301C2.76176 7.22541 2.91908 6.84311 2.95122 6.44024L3.07915 4.84112C3.15417 3.90099 3.90192 3.15442 4.84205 3.0794L6.43989 2.95196C6.84276 2.91981 7.22525 2.76146 7.53285 2.49932L8.75396 1.45879C9.47178 0.847069 10.5282 0.847069 11.246 1.45879Z" stroke="white" stroke-width="2" stroke-linecap="round" stroke-linejoin="round"/>
</svg>
