<svg width="20" height="20" viewBox="0 0 20 20" fill="none" xmlns="http://www.w3.org/2000/svg">
<path d="M11.0276 0C12.1526 0.003 12.7236 0.009 13.2166 0.023L13.4106 0.03C13.6346 0.038 13.8556 0.0479999 14.1226 0.0599999C15.1866 0.11 15.9126 0.278 16.5496 0.525C17.2096 0.779 17.7656 1.123 18.3216 1.678C18.8303 2.17773 19.2238 2.78247 19.4746 3.45C19.7216 4.087 19.8896 4.813 19.9396 5.878C19.9516 6.144 19.9616 6.365 19.9696 6.59L19.9756 6.784C19.9906 7.276 19.9966 7.847 19.9986 8.972L19.9996 9.718V11.028C20.002 11.7574 19.9944 12.4868 19.9766 13.216L19.9706 13.41C19.9626 13.635 19.9526 13.856 19.9406 14.122C19.8906 15.187 19.7206 15.912 19.4746 16.55C19.2238 17.2175 18.8303 17.8223 18.3216 18.322C17.8219 18.8307 17.2171 19.2242 16.5496 19.475C15.9126 19.722 15.1866 19.89 14.1226 19.94L13.4106 19.97L13.2166 19.976C12.7236 19.99 12.1526 19.997 11.0276 19.999L10.2816 20H8.97259C8.24285 20.0026 7.51312 19.9949 6.78359 19.977L6.58959 19.971C6.3522 19.962 6.11487 19.9517 5.87759 19.94C4.81359 19.89 4.08759 19.722 3.44959 19.475C2.78242 19.2241 2.17804 18.8306 1.67859 18.322C1.16954 17.8224 0.775701 17.2176 0.524592 16.55C0.277592 15.913 0.109592 15.187 0.0595922 14.122L0.0295922 13.41L0.0245923 13.216C0.00615837 12.4868 -0.00217586 11.7574 -0.000407766 11.028V8.972C-0.00317566 8.2426 0.00415845 7.5132 0.0215923 6.784L0.0285923 6.59C0.0365923 6.365 0.0465923 6.144 0.0585922 5.878C0.108592 4.813 0.276592 4.088 0.523592 3.45C0.775287 2.7822 1.16982 2.17744 1.67959 1.678C2.17875 1.16955 2.78278 0.776074 3.44959 0.525C4.08759 0.278 4.81259 0.11 5.87759 0.0599999C6.14359 0.0479999 6.36559 0.038 6.58959 0.03L6.78359 0.0239999C7.51278 0.00623271 8.24219 -0.0014347 8.97159 0.000999928L11.0276 0ZM9.99959 5C8.67351 5 7.40174 5.52678 6.46406 6.46447C5.52638 7.40215 4.99959 8.67392 4.99959 10C4.99959 11.3261 5.52638 12.5979 6.46406 13.5355C7.40174 14.4732 8.67351 15 9.99959 15C11.3257 15 12.5974 14.4732 13.5351 13.5355C14.4728 12.5979 14.9996 11.3261 14.9996 10C14.9996 8.67392 14.4728 7.40215 13.5351 6.46447C12.5974 5.52678 11.3257 5 9.99959 5ZM9.99959 7C10.3936 6.99993 10.7837 7.07747 11.1477 7.22817C11.5117 7.37887 11.8424 7.5998 12.1211 7.87833C12.3997 8.15686 12.6207 8.48754 12.7715 8.85149C12.9224 9.21544 13 9.60553 13.0001 9.9995C13.0002 10.3935 12.9226 10.7836 12.7719 11.1476C12.6212 11.5116 12.4003 11.8423 12.1218 12.121C11.8432 12.3996 11.5126 12.6206 11.1486 12.7714C10.7847 12.9223 10.3946 12.9999 10.0006 13C9.20494 13 8.44188 12.6839 7.87927 12.1213C7.31666 11.5587 7.00059 10.7956 7.00059 10C7.00059 9.20435 7.31666 8.44129 7.87927 7.87868C8.44188 7.31607 9.20494 7 10.0006 7M15.2506 3.5C14.9191 3.5 14.6011 3.6317 14.3667 3.86612C14.1323 4.10054 14.0006 4.41848 14.0006 4.75C14.0006 5.08152 14.1323 5.39946 14.3667 5.63388C14.6011 5.8683 14.9191 6 15.2506 6C15.5821 6 15.9001 5.8683 16.1345 5.63388C16.3689 5.39946 16.5006 5.08152 16.5006 4.75C16.5006 4.41848 16.3689 4.10054 16.1345 3.86612C15.9001 3.6317 15.5821 3.5 15.2506 3.5Z" fill="#577897"/>
</svg>
